<svg data-logo="logo" xmlns="http://www.w3.org/2000/svg" viewBox="0 0 123 24">
        <g style="opacity: 1;" id="logogram" transform="translate(0, 12) rotate(0)"></g>
        <g style="opacity: 1;" id="logotype" transform="translate(0, 1)"><path fill="#cfcfcf" d="M13.13 22L4.38 22L4.38 0.12L21.88 0.12L21.88 4.50L26.25 4.50L26.25 8.87L21.88 8.87L21.88 17.63L26.25 17.63L26.25 22L17.50 22L17.50 17.63L13.13 17.63L13.13 22ZM13.13 4.50L13.13 8.87L17.50 8.87L17.50 4.50L13.13 4.50ZM49.00 22L35.88 22L35.88 17.63L31.50 17.63L31.50 4.50L35.88 4.50L35.88 0.12L49.00 0.12L49.00 4.50L53.38 4.50L53.38 17.63L49.00 17.63L49.00 22ZM40.25 4.67L40.25 17.45L44.63 17.45L44.63 4.67L40.25 4.67ZM67.38 22L58.63 22L58.63 0.12L67.38 0.12L67.38 4.50L71.75 4.50L71.75 8.87L76.13 8.87L76.13 0.12L84.88 0.12L84.88 22L76.13 22L76.13 17.63L71.75 17.63L71.75 13.25L67.38 13.25L67.38 22ZM98.88 22L90.13 22L90.13 0.12L98.88 0.12L98.88 22ZM117.25 22L108.50 22L108.50 4.50L104.13 4.50L104.13 0.12L121.63 0.12L121.63 4.50L117.25 4.50L117.25 22Z"></path></g>
        
      </svg>